<svg width="1600" height="520" viewBox="0 0 1600 520" fill="none" xmlns="http://www.w3.org/2000/svg">
  <defs>
    <linearGradient id="bg" x1="0" y1="0" x2="1600" y2="520" gradientUnits="userSpaceOnUse">
      <stop stop-color="#120B24"/>
      <stop offset="1" stop-color="#1E3A3A"/>
    </linearGradient>
    <linearGradient id="gold" x1="340" y1="92" x2="1280" y2="440" gradientUnits="userSpaceOnUse">
      <stop stop-color="#EBCB8B"/>
      <stop offset="1" stop-color="#F59E0B"/>
    </linearGradient>
  </defs>
  <rect width="1600" height="520" rx="28" fill="url(#bg)"/>
  <circle cx="136" cy="92" r="2" fill="#FDE68A"/>
  <circle cx="420" cy="52" r="2" fill="#FDE68A"/>
  <circle cx="1020" cy="72" r="2" fill="#FDE68A"/>
  <circle cx="1490" cy="82" r="2" fill="#FDE68A"/>
  <circle cx="1220" cy="180" r="1.5" fill="#FDE68A"/>
  <circle cx="240" cy="210" r="1.5" fill="#FDE68A"/>
  <path d="M0 410C180 330 340 470 520 420C730 362 920 286 1140 338C1300 376 1440 454 1600 426V520H0V410Z" fill="#0B1526" fill-opacity="0.65"/>
  <path d="M0 452C220 396 370 468 560 434C758 396 950 338 1180 370C1360 396 1480 446 1600 430V520H0V452Z" fill="#0A1C1B" fill-opacity="0.75"/>
  <text x="110" y="182" fill="url(#gold)" font-family="Georgia, serif" font-size="86" font-weight="700">T20 OS</text>
  <text x="110" y="238" fill="#F8FAFC" font-family="Trebuchet MS, sans-serif" font-size="34">World-First GM Operating System</text>
  <text x="110" y="294" fill="#C7D2FE" font-family="Trebuchet MS, sans-serif" font-size="26">Build worlds. Forge sessions. Run epic tables.</text>
  <rect x="110" y="336" width="372" height="58" rx="29" fill="#0F172A" fill-opacity="0.82" stroke="#EAB308" stroke-width="2"/>
  <text x="145" y="372" fill="#FEF3C7" font-family="Trebuchet MS, sans-serif" font-size="24">Tormenta 20 + Narrative Ops</text>
  <g opacity="0.88">
    <path d="M1320 148L1378 276H1262L1320 148Z" fill="#FDE68A" fill-opacity="0.32"/>
    <rect x="1308" y="276" width="24" height="82" rx="8" fill="#FDE68A" fill-opacity="0.42"/>
    <rect x="1288" y="352" width="64" height="16" rx="8" fill="#FDE68A" fill-opacity="0.35"/>
  </g>
</svg>
