<svg width="1200" height="420" viewBox="0 0 1200 420" fill="none" xmlns="http://www.w3.org/2000/svg">
  <rect width="1200" height="420" rx="24" fill="#0F172A"/>
  <rect x="34" y="34" width="1132" height="352" rx="18" fill="#111827" stroke="#334155"/>
  <path d="M110 120C220 84 300 168 392 138C470 112 560 58 652 90C744 124 790 194 900 178C974 168 1022 128 1088 120" stroke="#22D3EE" stroke-width="4" stroke-linecap="round"/>
  <path d="M120 268C214 236 274 284 356 268C440 250 520 194 612 220C690 244 742 304 832 298C930 292 990 236 1080 244" stroke="#A78BFA" stroke-width="4" stroke-linecap="round"/>
  <circle cx="208" cy="96" r="10" fill="#F59E0B"/>
  <circle cx="534" cy="70" r="10" fill="#F59E0B"/>
  <circle cx="812" cy="206" r="10" fill="#F59E0B"/>
  <circle cx="1020" cy="116" r="10" fill="#F59E0B"/>
  <rect x="80" y="320" width="260" height="44" rx="10" fill="#1E293B"/>
  <text x="100" y="348" fill="#E2E8F0" font-family="Trebuchet MS, sans-serif" font-size="24">Map + Reveal + Pins</text>
</svg>
